<svg xmlns="http://www.w3.org/2000/svg" width="77.54" height="77.54" viewBox="0 0 77.54 77.54">
  <g id="computer" transform="translate(1 51)">
    <path id="Path_60" data-name="Path 60" d="M69.968,0H7.572A7.581,7.581,0,0,0,0,7.572V53.915a7.581,7.581,0,0,0,7.572,7.572H31.2v6.966H29.683a7.574,7.574,0,0,0-7.572,7.572,1.514,1.514,0,0,0,1.514,1.514H53.915a1.514,1.514,0,0,0,1.514-1.514,7.581,7.581,0,0,0-7.572-7.572H46.342V61.487H69.968a7.581,7.581,0,0,0,7.572-7.572V7.572A7.581,7.581,0,0,0,69.968,0ZM7.572,3.029h62.4a4.548,4.548,0,0,1,4.543,4.543v38.77H67.545V11.51A1.514,1.514,0,0,0,66.03,10H53.915A1.514,1.514,0,0,0,52.4,11.51V46.342H44.82c-.016-1.567-.057-3.111-.122-4.608a97.41,97.41,0,0,0-1.183-12.117,7.573,7.573,0,0,0,2.068-9.878l-5.249-9.091a1.514,1.514,0,0,0-2.623,0L32.458,19.74A7.572,7.572,0,0,0,34.125,29.3a96.137,96.137,0,0,0-1.277,12.434c-.068,1.514-.111,3.059-.128,4.611H25.14V23.625a1.506,1.506,0,0,0-.15-.654c0-.008-.007-.016-.01-.024L18.922,10.832a1.515,1.515,0,0,0-2.709,0L10.155,22.948c0,.008-.006.016-.009.024a1.505,1.505,0,0,0-.15.654V46.342H3.029V7.572A4.548,4.548,0,0,1,7.572,3.029ZM55.429,46.342V13.024h9.087v3.029H63a1.514,1.514,0,1,0,0,3.029h1.514v4.543H63a1.514,1.514,0,1,0,0,3.029h1.514V31.2H63a1.514,1.514,0,1,0,0,3.029h1.514v6.058H63a1.514,1.514,0,1,0,0,3.029h1.514v3.029ZM39.021,31.093a7.583,7.583,0,0,0,1.634-.182c.281,1.8.694,4.989.938,9.373H35.956c.256-4.381.689-7.618.987-9.481a7.582,7.582,0,0,0,2.078.289Zm0-3.029a4.549,4.549,0,0,1-3.939-6.81l3.939-6.82,3.937,6.819a4.546,4.546,0,0,1-3.937,6.811Zm-3.2,15.249h5.909c.032,1,.054,2.007.064,3.029H35.749c.011-1.015.034-2.027.068-3.029ZM19.082,46.342V25.14h3.029v21.2Zm-6.058,0V25.14h3.029v21.2Zm.936-24.231L17.568,14.9l3.607,7.215Zm38.18,52.4H25.4a4.552,4.552,0,0,1,4.285-3.029H47.857a4.55,4.55,0,0,1,4.284,3.029Zm-8.827-6.058H34.227V61.487h9.087Zm26.654-10H7.572a4.548,4.548,0,0,1-4.543-4.543V49.371H74.511v4.543A4.548,4.548,0,0,1,69.968,58.458Zm0,0" transform="translate(-1 -51)" fill="#49d5ff"/>
  </g>
</svg>
