<svg xmlns="http://www.w3.org/2000/svg" width="43.913" height="77.54" viewBox="0 0 43.913 77.54">
  <path id="Path_72" data-name="Path 72" d="M45.137,0H12.511A5.643,5.643,0,0,0,6.87,5.651V71.9a5.643,5.643,0,0,0,5.641,5.643H45.137A5.649,5.649,0,0,0,50.783,71.9V5.651A5.652,5.652,0,0,0,45.137,0Zm1.414,62.825H11.1V9.532h35.45ZM36.388,5.734H21.262V4.084H36.391l0,1.649Zm6.473-.754a1.446,1.446,0,1,1-1.446-1.444A1.447,1.447,0,0,1,42.861,4.98ZM35.71,71.52H21.935V67.281H35.71Z" transform="translate(-6.87)" fill="#49d5ff"/>
</svg>
