<svg id="Group_37" data-name="Group 37"
  xmlns="http://www.w3.org/2000/svg" width="91.748" height="77.54" viewBox="0 0 91.748 77.54">
  <path id="Path_78" data-name="Path 78" d="M85.063,39.644H6.685A6.692,6.692,0,0,0,0,46.329V110.5a6.692,6.692,0,0,0,6.685,6.685H85.064a6.692,6.692,0,0,0,6.685-6.685V46.329A6.692,6.692,0,0,0,85.063,39.644Zm4,14.937H21.109a1.344,1.344,0,1,0,0,2.688H89.06V110.5a4,4,0,0,1-4,4H6.685a4,4,0,0,1-4-4V57.269H14.826a1.344,1.344,0,1,0,0-2.688H2.688V46.329a4,4,0,0,1,4-4H85.064a4,4,0,0,1,4,4v8.252Z" transform="translate(0 -39.644)" fill="#49d5ff"/>
  <circle id="Ellipse_7" data-name="Ellipse 7" cx="1.34" cy="1.34" r="1.34" transform="translate(10.32 7.473)" fill="#49d5ff"/>
  <circle id="Ellipse_8" data-name="Ellipse 8" cx="1.34" cy="1.34" r="1.34" transform="translate(16.634 7.473)" fill="#49d5ff"/>
  <circle id="Ellipse_9" data-name="Ellipse 9" cx="1.34" cy="1.34" r="1.34" transform="translate(22.949 7.473)" fill="#49d5ff"/>
  <path id="Path_79" data-name="Path 79" d="M412.213,81.322h-7.869a1.344,1.344,0,0,0,0,2.688h7.869a1.344,1.344,0,1,0,0-2.688Z" transform="translate(-330.784 -73.853)" fill="#49d5ff"/>
  <path id="Path_80" data-name="Path 80" d="M196.434,316.812a1.327,1.327,0,1,0,1.327-1.327A1.327,1.327,0,0,0,196.434,316.812Z" transform="translate(-161.234 -266.056)" fill="#49d5ff"/>
  <path id="Path_81" data-name="Path 81" d="M301.1,316.812a1.327,1.327,0,1,0,1.327-1.327A1.327,1.327,0,0,0,301.1,316.812Z" transform="translate(-247.144 -266.056)" fill="#49d5ff"/>
  <path id="Path_82" data-name="Path 82" d="M123.569,269.957l-1.607,4.585L120.38,269.9l0-.011a1.344,1.344,0,0,0-2.529-.015l0,.01-1.674,4.7-1.585-4.612a1.344,1.344,0,0,0-2.542.874l2.833,8.243a1.344,1.344,0,0,0,1.264.907h.008a1.344,1.344,0,0,0,1.266-.893l1.67-4.685,1.592,4.668a1.344,1.344,0,0,0,1.266.91h.006a1.344,1.344,0,0,0,1.268-.9l2.893-8.253a1.344,1.344,0,1,0-2.537-.889Z" transform="translate(-91.903 -227.898)" fill="#49d5ff"/>
  <path id="Path_83" data-name="Path 83" d="M227.94,269.954l-1.607,4.585-1.582-4.637,0-.011a1.344,1.344,0,0,0-2.529-.015l0,.01-1.674,4.7-1.585-4.612a1.344,1.344,0,1,0-2.542.874l2.833,8.243a1.344,1.344,0,0,0,1.263.907h.008a1.344,1.344,0,0,0,1.266-.893l1.67-4.685,1.592,4.668a1.345,1.345,0,0,0,1.266.91h.006a1.344,1.344,0,0,0,1.268-.9l2.893-8.253a1.344,1.344,0,0,0-2.537-.889Z" transform="translate(-177.572 -227.895)" fill="#49d5ff"/>
  <path id="Path_84" data-name="Path 84" d="M332.31,269.959l-1.607,4.585-1.582-4.637a1.345,1.345,0,0,0-2.534-.027l0,.01-1.675,4.7-1.585-4.612a1.344,1.344,0,1,0-2.542.874l2.833,8.243a1.344,1.344,0,0,0,1.263.907h.008a1.343,1.343,0,0,0,1.266-.893l1.67-4.685,1.592,4.668a1.344,1.344,0,0,0,1.266.91h.006a1.344,1.344,0,0,0,1.268-.9l2.893-8.253a1.344,1.344,0,1,0-2.537-.889Z" transform="translate(-263.239 -227.9)" fill="#49d5ff"/>
  <path id="Path_85" data-name="Path 85" d="M58.987,177.923V194.6a5.055,5.055,0,0,0,5.049,5.049h9.422a24.765,24.765,0,0,0,41.665,0h9.723A5.055,5.055,0,0,0,129.9,194.6v-5.359a1.344,1.344,0,1,0-2.688,0V194.6a2.364,2.364,0,0,1-2.361,2.361H64.036a2.364,2.364,0,0,1-2.361-2.361v-16.68a2.364,2.364,0,0,1,2.361-2.361h60.81a2.364,2.364,0,0,1,2.361,2.361v4.991a1.344,1.344,0,0,0,2.688,0v-4.991a5.055,5.055,0,0,0-5.049-5.049h-9.723a24.766,24.766,0,0,0-41.665,0H64.036A5.055,5.055,0,0,0,58.987,177.923Zm47.443,21.729h5.408a22.053,22.053,0,0,1-9.426,7.139A23.584,23.584,0,0,0,106.43,199.652Zm-10.8,0h7.911c-1.475,3.585-4.133,7.689-7.911,8.535Zm-2.688,0v8.535c-3.78-.846-6.437-4.954-7.911-8.535Zm-10.8,0a23.589,23.589,0,0,0,4.018,7.139,22.051,22.051,0,0,1-9.426-7.139Zm29.684-26.778H106.43a23.588,23.588,0,0,0-4.018-7.139,22.043,22.043,0,0,1,9.424,7.139Zm-16.2-8.535c3.78.846,6.437,4.954,7.911,8.535H95.635Zm-2.688,0v8.535H85.036C86.511,169.289,89.169,165.184,92.947,164.339Zm-6.777,1.4a23.59,23.59,0,0,0-4.018,7.139H76.745A22.042,22.042,0,0,1,86.17,165.735Z" transform="translate(-48.417 -139.664)" fill="#49d5ff"/>
</svg>
